<?xml version="1.0" encoding="UTF-8" standalone="no"?>
  <svg xmlns="http://www.w3.org/2000/svg" version="1.1" id="xowl-logo" height="1000" width="1000">
    <g>
      <clipPath clipPathUnits="userSpaceOnUse" id="clip-left">
        <path style="fill:#000000;fill-opacity:1;stroke:none;stroke-width:2;stroke-miterlimit:4;stroke-dasharray:none;stroke-opacity:1" d="m 0,280 c 122.05106,114.07921 232.45784,231.34105 350,350 l 350,0 0,350 -700,0 z" />
      </clipPath>
      <clipPath clipPathUnits="userSpaceOnUse" id="clip-right">
        <path style="fill:#000000;fill-opacity:1;stroke:none;stroke-width:2;stroke-miterlimit:4;stroke-dasharray:none;stroke-opacity:1" d="M 521.89112,1108.1089 C 559.66106,945.36994 606.00939,791.12392 650.00001,630 l -175,-303.10889 303.10887,-174.99999 350.00002,606.21779 z" />
      </clipPath>
      <clipPath clipPathUnits="userSpaceOnUse" id="clip-top">
        <path style="fill:#000000;fill-opacity:1;stroke:none;stroke-width:2;stroke-miterlimit:4;stroke-dasharray:none;stroke-opacity:1" d="M 978.1089,241.8911 C 818.28785,290.55086 661.53277,327.53495 500,370 l -175,303.10889 -303.108891,-175 350.000001,-606.21779 z" />
      </clipPath>
      <g mask="none" style="display:inline" id="layer-left" clip-path="url(#clip-left)">
        <path transform="rotate(0 350 630)" d="m 334.4668,280 -23.66407,52.27344 -1.80078,18.53515 4.64063,31.60157 -55.95117,14.99023 -11.78125,-29.68555 -10.82813,-15.15234 -46.63086,-33.4375 -26.90234,15.5332 5.64258,57.10157 7.70703,16.95312 19.82031,25.04688 -40.95898,40.95898 -25.04688,-19.82031 -16.95312,-7.70703 -57.101569,-5.64258 -15.533203,26.90234 33.4375,46.63086 15.152344,10.82813 29.685548,11.78125 -14.99023,55.95117 -31.601568,-4.64063 -18.535156,1.80078 -52.273438088183,23.66407 0,31.0664 L 52.273436,669.19727 l 18.535156,1.80078 31.601568,-4.64063 14.99023,55.95117 -29.685548,11.78125 -15.152344,10.82813 -33.4375,46.63086 15.533203,26.90234 57.101569,-5.64258 16.95312,-7.70703 25.04688,-19.82031 40.95898,40.95898 -19.82031,25.04688 -7.70703,16.95312 -5.64258,57.10157 26.90234,15.5332 46.63086,-33.4375 10.82813,-15.15234 11.78125,-29.68555 55.95117,14.99023 -4.64063,31.60157 1.80078,18.53515 L 334.4668,980 l 31.0664,0 23.66407,-52.27344 1.80078,-18.53515 -4.64063,-31.60157 55.95117,-14.99023 11.78125,29.68555 10.82813,15.15234 46.63086,33.4375 26.90234,-15.5332 -5.64258,-57.10157 -7.70703,-16.95312 -19.82031,-25.04688 40.95898,-40.95898 25.04688,19.82031 16.95312,7.70703 57.10157,5.64258 15.5332,-26.90234 -33.4375,-46.63086 -15.15234,-10.82813 -29.68555,-11.78125 14.99023,-55.95117 31.60157,4.64063 18.53515,-1.80078 L 700,645.5332 l 0,-31.0664 -52.27344,-23.66407 -18.53515,-1.80078 -31.60157,4.64063 -14.99023,-55.95117 29.68555,-11.78125 15.15234,-10.82813 33.4375,-46.63086 -15.5332,-26.90234 -57.10157,5.64258 -16.95312,7.70703 -25.04688,19.82031 -40.95898,-40.95898 19.82031,-25.04688 7.70703,-16.95312 5.64258,-57.10157 -26.90234,-15.5332 -46.63086,33.4375 -10.82813,15.15234 -11.78125,29.68555 -55.95117,-14.99023 4.64063,-31.60157 -1.80078,-18.53515 L 365.5332,280 334.4668,280 Z M 350,455 A 175,175 0 0 1 525,630 175,175 0 0 1 350,805 175,175 0 0 1 175,630 175,175 0 0 1 350,455 Z"
        style="fill:#ef7c00;fill-opacity:1;stroke:none;stroke-width:1" id="gear-left" />
      </g>
      <g mask="none" style="display:inline" id="layer-right" clip-path="url(#clip-right)">
        <path transform="rotate(0 650 630)" d="m 634.4668,280.00001 -23.66407,52.27344 -1.80078,18.53515 4.64063,31.60157 -55.95117,14.99023 -11.78125,-29.68555 -10.82813,-15.15234 -46.63086,-33.4375 -26.90234,15.5332 5.64258,57.10157 7.70703,16.95312 19.82031,25.04688 -40.95898,40.95898 -25.04688,-19.82031 -16.95312,-7.70703 -57.10157,-5.64258 -15.5332,26.90234 33.4375,46.63086 15.15234,10.82813 29.68555,11.78125 -14.99023,55.95117 -31.60157,-4.64063 -18.53515,1.80078 L 300,614.46681 l 0,31.0664 52.27344,23.66407 18.53515,1.80078 31.60157,-4.64063 14.99023,55.95117 -29.68555,11.78125 -15.15234,10.82813 -33.4375,46.63086 15.5332,26.90234 57.10157,-5.64258 16.95312,-7.70703 25.04688,-19.82031 40.95898,40.95898 -19.82031,25.04688 -7.70703,16.95312 -5.64258,57.10157 26.90234,15.5332 46.63086,-33.4375 10.82813,-15.15234 11.78125,-29.68555 55.95117,14.99023 -4.64063,31.60157 1.80078,18.53515 23.66407,52.27344 31.0664,0 23.66407,-52.27344 1.80078,-18.53515 -4.64063,-31.60157 55.95117,-14.99023 11.78125,29.68555 10.82813,15.15234 46.63086,33.4375 26.90234,-15.5332 -5.64258,-57.10157 -7.70703,-16.95312 -19.82031,-25.04688 40.95898,-40.95898 25.04688,19.82031 16.95312,7.70703 57.10157,5.64258 15.5332,-26.90234 -33.4375,-46.63086 -15.15234,-10.82813 -29.68555,-11.78125 14.99023,-55.95117 31.60157,4.64063 18.53515,-1.80078 52.27344,-23.66407 0,-31.0664 -52.27344,-23.66407 -18.53515,-1.80078 -31.60157,4.64063 -14.99023,-55.95117 29.68555,-11.78125 15.15234,-10.82813 33.4375,-46.63086 -15.5332,-26.90234 -57.10157,5.64258 -16.95312,7.70703 -25.04688,19.82031 -40.95898,-40.95898 19.82031,-25.04688 7.70703,-16.95312 5.64258,-57.10157 -26.90234,-15.5332 -46.63086,33.4375 -10.82813,15.15234 -11.78125,29.68555 -55.95117,-14.99023 4.64063,-31.60157 -1.80078,-18.53515 -23.66407,-52.27344 -31.0664,0 z m 15.5332,175 a 175,175 0 0 1 175,175 175,175 0 0 1 -175,175 175,175 0 0 1 -175,-175 175,175 0 0 1 175,-175 z"
        style="fill:#bd1789;fill-opacity:1;stroke:none;stroke-width:1" id="gear-right" />
      </g>
      <g mask="none" style="display:inline" id="layer-top" clip-path="url(#clip-top)">
        <path transform="rotate(0 500 370)" d="m 484.4668,20.00001 -23.66407,52.27344 -1.80078,18.53515 4.64063,31.60157 -55.95117,14.99023 -11.78125,-29.68555 -10.82813,-15.15234 -46.63086,-33.4375 -26.90234,15.5332 5.64258,57.10157 7.70703,16.95312 19.82031,25.04688 -40.95898,40.95898 -25.04688,-19.82031 -16.95312,-7.70703 -57.10157,-5.64258 -15.5332,26.90234 33.4375,46.63086 15.15234,10.82813 29.68555,11.78125 -14.99023,55.95117 -31.60157,-4.64063 -18.53515,1.80078 L 150,354.46681 l 0,31.0664 52.27344,23.66407 18.53515,1.80078 31.60157,-4.64063 14.99023,55.95117 -29.68555,11.78125 -15.15234,10.82813 -33.4375,46.63086 15.5332,26.90234 57.10157,-5.64258 16.95312,-7.70703 25.04688,-19.82031 40.95898,40.95898 -19.82031,25.04688 -7.70703,16.95312 -5.64258,57.10157 26.90234,15.5332 46.63086,-33.4375 10.82813,-15.15234 11.78125,-29.68555 55.95117,14.99023 -4.64063,31.60157 1.80078,18.53515 23.66407,52.27344 31.0664,0 23.66407,-52.27344 1.80078,-18.53515 -4.64063,-31.60157 55.95117,-14.99023 11.78125,29.68555 10.82813,15.15234 46.63086,33.4375 26.90234,-15.5332 -5.64258,-57.10157 -7.70703,-16.95312 -19.82031,-25.04688 40.95898,-40.95898 25.04688,19.82031 16.95312,7.70703 57.10157,5.64258 15.5332,-26.90234 -33.4375,-46.63086 -15.15234,-10.82813 -29.68555,-11.78125 14.99023,-55.95117 31.60157,4.64063 18.53515,-1.80078 L 850,385.53321 l 0,-31.0664 -52.27344,-23.66407 -18.53515,-1.80078 -31.60157,4.64063 -14.99023,-55.95117 29.68555,-11.78125 15.15234,-10.82813 33.4375,-46.63086 -15.5332,-26.90234 -57.10157,5.64258 -16.95312,7.70703 -25.04688,19.82031 -40.95898,-40.95898 19.82031,-25.04688 7.70703,-16.95312 5.64258,-57.10157 -26.90234,-15.5332 -46.63086,33.4375 -10.82813,15.15234 -11.78125,29.68555 -55.95117,-14.99023 4.64063,-31.60157 -1.80078,-18.53515 -23.66407,-52.27344 -31.0664,0 z m 15.5332,175 a 175,175 0 0 1 175,175 175,175 0 0 1 -175,175 175,175 0 0 1 -175,-175 175,175 0 0 1 175,-175 z"
        style="fill:#86ba0c;fill-opacity:1;stroke:none;stroke-width:1" id="gear-top" />
      </g>
    </g>
  </svg>
